<?xml version="1.0" encoding="UTF-8" standalone="no"?>
<svg width="25px" height="16px" viewBox="0 0 25 16" version="1.1" xmlns="http://www.w3.org/2000/svg" xmlns:xlink="http://www.w3.org/1999/xlink">
    <!-- Generator: Sketch 39.1 (31720) - http://www.bohemiancoding.com/sketch -->
    <title>check list</title>
    <desc>Created with Sketch.</desc>
    <defs></defs>
    <g id="Page-1" stroke="none" stroke-width="1" fill="none" fill-rule="evenodd">
        <g id="check-list" transform="translate(0.000000, -4.000000)">
            <g id="Group">
                <g id="Frame_-_24px">
                    <rect id="Rectangle-path" x="0" y="0.001" width="24" height="24"></rect>
                </g>
                <g id="Filled_Icons" transform="translate(0.000000, 4.000000)" fill="#4E2A84">
                    <path d="M22.042,0.001 L2.042,0.001 C0.937,0.001 0.042,0.896 0.042,2.001 L0.042,14.001 C0.042,15.105 0.938,16.001 2.042,16.001 L22.042,16.001 C23.146,16.001 24.042,15.105 24.042,14.001 L24.042,2.001 C24.042,0.896 23.146,0.001 22.042,0.001 L22.042,0.001 Z M6.419,13.754 L2.348,11.04 L3.735,8.96 L5.664,10.246 L9.982,3.338 L12.102,4.663 L6.419,13.754 L6.419,13.754 Z M20.042,13 L14.042,13 L14.042,11 L20.042,11 L20.042,13 L20.042,13 Z M20.042,9 L14.042,9 L14.042,7 L20.042,7 L20.042,9 L20.042,9 Z M20.042,5 L14.042,5 L14.042,3 L20.042,3 L20.042,5 L20.042,5 Z" id="Shape"></path>
                </g>
            </g>
        </g>
    </g>
</svg>