<?xml version="1.0" encoding="UTF-8" standalone="no"?>
<svg width="26px" height="25px" viewBox="0 0 26 25" version="1.1" xmlns="http://www.w3.org/2000/svg" xmlns:xlink="http://www.w3.org/1999/xlink">
    <!-- Generator: Sketch 39.1 (31720) - http://www.bohemiancoding.com/sketch -->
    <title>f0d6</title>
    <desc>Created with Sketch.</desc>
    <defs></defs>
    <g id="Page-1" stroke="none" stroke-width="1" fill="none" fill-rule="evenodd">
        <g id="f0d6" fill="#4E2A84">
            <path d="M15.519531,5.519531 L10.480469,5.519531 L10.480469,3 L15.519531,3 L15.519531,5.519531 Z M23.019531,5.519531 L17.980469,5.519531 L17.980469,3 L15.519531,0.539062 L10.480469,0.539062 L8.019531,3 L8.019531,5.519531 L2.980469,5.519531 C2.277344,5.519531 1.691406,5.753906 1.222656,6.222656 C0.753906,6.691406 0.519531,7.296875 0.519531,8.039062 L0.519531,21.75 C0.519531,22.453125 0.753906,23.048828 1.222656,23.537109 C1.691406,24.025391 2.277344,24.269531 2.980469,24.269531 L23.019531,24.269531 C23.722656,24.269531 24.308594,24.025391 24.777344,23.537109 C25.246094,23.048828 25.480469,22.453125 25.480469,21.75 L25.480469,8.039062 C25.480469,7.296875 25.246094,6.691406 24.777344,6.222656 C24.308594,5.753906 23.722656,5.519531 23.019531,5.519531 L23.019531,5.519531 Z" id="Shape"></path>
        </g>
    </g>
</svg>