<?xml version="1.0" encoding="UTF-8" standalone="no"?>
<svg width="18px" height="26px" viewBox="0 0 18 26" version="1.1" xmlns="http://www.w3.org/2000/svg" xmlns:xlink="http://www.w3.org/1999/xlink">
    <!-- Generator: Sketch 39.1 (31720) - http://www.bohemiancoding.com/sketch -->
    <title>f335</title>
    <desc>Created with Sketch.</desc>
    <defs></defs>
    <g id="Page-1" stroke="none" stroke-width="1" fill="none" fill-rule="evenodd">
        <g id="f335" fill="#4E2A84">
            <path d="M9,0.308594 C6.5,0.347656 4.429688,1.1875 2.789062,2.828125 C1.148438,4.46875 0.308594,6.539062 0.269531,9.039062 C0.269531,10.523438 0.601562,11.890625 1.265625,13.140625 C1.929688,14.390625 2.847656,15.40625 4.019531,16.1875 L4.019531,19.058594 C4.019531,19.410156 4.136719,19.703125 4.371094,19.9375 C4.605469,20.171875 4.898438,20.289062 5.25,20.289062 L12.75,20.289062 C13.101562,20.289062 13.394531,20.171875 13.628906,19.9375 C13.863281,19.703125 13.980469,19.410156 13.980469,19.058594 L13.980469,16.1875 C15.152344,15.40625 16.070312,14.390625 16.734375,13.140625 C17.398438,11.890625 17.730469,10.523438 17.730469,9.039062 C17.691406,6.539062 16.851562,4.46875 15.210938,2.828125 C13.570312,1.1875 11.5,0.347656 9,0.308594 L9,0.308594 Z M5.25,24.039062 C5.25,24.390625 5.367188,24.683594 5.601562,24.917969 C5.835938,25.152344 6.128906,25.269531 6.480469,25.269531 L11.519531,25.269531 C11.871094,25.269531 12.164062,25.152344 12.398438,24.917969 C12.632812,24.683594 12.75,24.390625 12.75,24.039062 L12.75,22.808594 L5.25,22.808594 L5.25,24.039062 Z" id="Shape"></path>
        </g>
    </g>
</svg>