<?xml version="1.0" encoding="UTF-8" standalone="no"?>
<svg width="26px" height="26px" viewBox="0 0 26 26" version="1.1" xmlns="http://www.w3.org/2000/svg" xmlns:xlink="http://www.w3.org/1999/xlink">
    <!-- Generator: Sketch 39.1 (31720) - http://www.bohemiancoding.com/sketch -->
    <title>f529</title>
    <desc>Created with Sketch.</desc>
    <defs></defs>
    <g id="Page-1" stroke="none" stroke-width="1" fill="none" fill-rule="evenodd">
        <g id="f529" transform="translate(-0.083333, 0.000000)" fill="#4E2A84">
            <path d="M6.730469,0.308594 C4.855469,0.386719 3.351562,1.167969 2.21875,2.652344 C1.085938,4.136719 0.519531,5.855469 0.519531,7.808594 C0.519531,9.175781 0.773438,10.591797 1.28125,12.056641 C1.789062,13.521484 2.355469,14.605469 2.980469,15.308594 C3.605469,16.246094 4.289062,18.0625 5.03125,20.757812 C5.773438,23.453125 6.769531,24.957031 8.019531,25.269531 C10.558594,24.917969 11.789062,23.462891 11.710938,20.904297 C11.632812,18.345703 12.0625,16.890625 13,16.539062 C13.9375,16.890625 14.367188,18.345703 14.289062,20.904297 C14.210938,23.462891 15.441406,24.917969 17.980469,25.269531 C19.230469,24.957031 20.226562,23.453125 20.96875,20.757812 C21.710938,18.0625 22.394531,16.246094 23.019531,15.308594 C23.644531,14.605469 24.210938,13.521484 24.71875,12.056641 C25.226562,10.591797 25.480469,9.175781 25.480469,7.808594 C25.480469,5.855469 24.914062,4.136719 23.78125,2.652344 C22.648438,1.167969 21.144531,0.386719 19.269531,0.308594 C17.511719,0.347656 16.310547,0.552734 15.666016,0.923828 C15.021484,1.294922 14.132812,1.5 13,1.539062 C11.867188,1.5 10.978516,1.294922 10.333984,0.923828 C9.689453,0.552734 8.488281,0.347656 6.730469,0.308594 L6.730469,0.308594 Z M6.730469,2.769531 C7.941406,2.847656 8.986328,3.0625 9.865234,3.414062 C10.744141,3.765625 11.789062,3.980469 13,4.058594 C14.210938,3.980469 15.255859,3.765625 16.134766,3.414062 C17.013672,3.0625 18.058594,2.847656 19.269531,2.769531 C20.324219,2.847656 21.203125,3.375 21.90625,4.351562 C22.609375,5.328125 22.980469,6.480469 23.019531,7.808594 C22.980469,8.941406 22.746094,10.113281 22.316406,11.324219 C21.886719,12.535156 21.359375,13.472656 20.734375,14.136719 C20.1875,14.957031 19.582031,16.519531 18.917969,18.824219 C18.253906,21.128906 17.746094,22.417969 17.394531,22.691406 C17.238281,22.691406 17.091797,22.408203 16.955078,21.841797 C16.818359,21.275391 16.75,20.582031 16.75,19.761719 C16.789062,18.433594 16.544922,17.164062 16.017578,15.953125 C15.490234,14.742188 14.484375,14.097656 13,14.019531 C11.515625,14.097656 10.509766,14.742188 9.982422,15.953125 C9.455078,17.164062 9.210938,18.433594 9.25,19.761719 C9.25,20.582031 9.181641,21.275391 9.044922,21.841797 C8.908203,22.408203 8.761719,22.691406 8.605469,22.691406 C8.253906,22.417969 7.746094,21.128906 7.082031,18.824219 C6.417969,16.519531 5.8125,14.957031 5.265625,14.136719 C4.640625,13.472656 4.113281,12.535156 3.683594,11.324219 C3.253906,10.113281 3.019531,8.941406 2.980469,7.808594 C3.019531,6.480469 3.390625,5.328125 4.09375,4.351562 C4.796875,3.375 5.675781,2.847656 6.730469,2.769531 L6.730469,2.769531 Z" id="Shape"></path>
        </g>
    </g>
</svg>