<?xml version="1.0" encoding="UTF-8" standalone="no"?>
<svg width="22px" height="25px" viewBox="0 0 22 25" version="1.1" xmlns="http://www.w3.org/2000/svg" xmlns:xlink="http://www.w3.org/1999/xlink">
    <!-- Generator: Sketch 39.1 (31720) - http://www.bohemiancoding.com/sketch -->
    <title>f5b5</title>
    <desc>Created with Sketch.</desc>
    <defs></defs>
    <g id="Page-1" stroke="none" stroke-width="1" fill="none" fill-rule="evenodd">
        <g id="f5b5" fill="#4E2A84">
            <path d="M11,16.769531 C8.148438,16.808594 5.785156,17.296875 3.910156,18.234375 C2.035156,19.171875 1.058594,20.34375 0.980469,21.75 L0.980469,24.269531 L21.019531,24.269531 L21.019531,21.75 C20.941406,20.34375 19.964844,19.171875 18.089844,18.234375 C16.214844,17.296875 13.851562,16.808594 11,16.769531 L11,16.769531 Z M6.019531,9.269531 C6.058594,10.675781 6.546875,11.847656 7.484375,12.785156 C8.421875,13.722656 9.59375,14.191406 11,14.191406 C12.40625,14.191406 13.578125,13.722656 14.515625,12.785156 C15.453125,11.847656 15.941406,10.675781 15.980469,9.269531 L6.019531,9.269531 Z M10.355469,0.539062 C9.964844,0.539062 9.769531,0.734375 9.769531,1.125 L9.769531,4.875 L8.480469,4.875 L8.480469,1.769531 C8.363281,1.730469 7.894531,2.0625 7.074219,2.765625 C6.253906,3.46875 5.785156,4.699219 5.667969,6.457031 C5.628906,6.417969 5.472656,6.496094 5.199219,6.691406 C4.925781,6.886719 4.769531,7.335938 4.730469,8.039062 L17.269531,8.039062 C17.191406,7.335938 17.025391,6.886719 16.771484,6.691406 C16.517578,6.496094 16.371094,6.417969 16.332031,6.457031 C16.214844,4.699219 15.746094,3.46875 14.925781,2.765625 C14.105469,2.0625 13.636719,1.730469 13.519531,1.769531 L13.519531,4.875 L12.230469,4.875 L12.230469,1.125 C12.230469,0.734375 12.035156,0.539062 11.644531,0.539062 L10.355469,0.539062 Z" id="Shape"></path>
        </g>
    </g>
</svg>