<?xml version="1.0" encoding="UTF-8" standalone="no"?>
<svg width="28px" height="26px" viewBox="0 0 28 26" version="1.1" xmlns="http://www.w3.org/2000/svg" xmlns:xlink="http://www.w3.org/1999/xlink">
    <!-- Generator: Sketch 39.1 (31720) - http://www.bohemiancoding.com/sketch -->
    <title>f5da</title>
    <desc>Created with Sketch.</desc>
    <defs></defs>
    <g id="Page-1" stroke="none" stroke-width="1" fill="none" fill-rule="evenodd">
        <g id="f5da" fill="#4E2A84">
            <path d="M22.730469,0.308594 L16.519531,5.933594 L16.519531,19.644531 L22.730469,14.019531 L22.730469,0.308594 Z M7.144531,4.058594 C5.894531,4.019531 4.664062,4.146484 3.453125,4.439453 C2.242188,4.732422 1.167969,5.230469 0.230469,5.933594 L0.230469,24.214844 C0.230469,24.410156 0.298828,24.566406 0.435547,24.683594 C0.572266,24.800781 0.71875,24.859375 0.875,24.859375 L1.167969,24.800781 C2.066406,24.371094 3.052734,24.029297 4.126953,23.775391 C5.201172,23.521484 6.207031,23.394531 7.144531,23.394531 C8.355469,23.394531 9.566406,23.541016 10.777344,23.833984 C11.988281,24.126953 13.0625,24.605469 14,25.269531 C14.898438,24.722656 15.992188,24.283203 17.28125,23.951172 C18.570312,23.619141 19.751953,23.443359 20.826172,23.423828 C21.900391,23.404297 22.945312,23.501953 23.960938,23.716797 C24.976562,23.931641 25.933594,24.273438 26.832031,24.742188 C26.910156,24.78125 27.017578,24.791016 27.154297,24.771484 C27.291016,24.751953 27.417969,24.683594 27.535156,24.566406 C27.652344,24.449219 27.730469,24.3125 27.769531,24.15625 L27.769531,5.933594 C27.027344,5.386719 26.1875,4.957031 25.25,4.644531 L25.25,21.519531 C23.84375,21.089844 22.378906,20.894531 20.855469,20.933594 C19.761719,20.933594 18.570312,21.109375 17.28125,21.460938 C15.992188,21.8125 14.898438,22.261719 14,22.808594 L14,5.933594 C13.0625,5.230469 11.988281,4.732422 10.777344,4.439453 C9.566406,4.146484 8.355469,4.019531 7.144531,4.058594 L7.144531,4.058594 Z" id="Shape"></path>
        </g>
    </g>
</svg>