<?xml version="1.0" encoding="UTF-8" standalone="no"?>
<svg width="399px" height="420px" viewBox="0 0 399 420" version="1.1" xmlns="http://www.w3.org/2000/svg" xmlns:xlink="http://www.w3.org/1999/xlink">
    <!-- Generator: Sketch 3.8.3 (29802) - http://www.bohemiancoding.com/sketch -->
    <title>ic_airplanemode_active_black_24px</title>
    <desc>Created with Sketch.</desc>
    <defs></defs>
    <g id="Page-1" stroke="none" stroke-width="1" fill="none" fill-rule="evenodd">
        <g id="ic_airplanemode_active_black_24px" transform="translate(-41.000000, -41.000000)">
            <g id="Group">
                <path d="M439.608887,334.940104 L439.608887,293.072591 L272.138835,188.403809 L272.138835,73.2681478 C272.138835,55.8931299 258.113218,41.867513 240.7382,41.867513 C223.363182,41.867513 209.337565,55.8931299 209.337565,73.2681478 L209.337565,188.403809 L41.867513,293.072591 L41.867513,334.940104 L209.337565,282.605713 L209.337565,397.741374 L167.470052,429.142008 L167.470052,460.542643 L240.7382,439.608887 L314.006348,460.542643 L314.006348,429.142008 L272.138835,397.741374 L272.138835,282.605713 L439.608887,334.940104 L439.608887,334.940104 Z" id="Shape" fill="#4E2A84"></path>
                <polygon id="Shape" points="0 0 502.410156 0 502.410156 502.410156 0 502.410156"></polygon>
            </g>
        </g>
    </g>
</svg>