<?xml version="1.0" encoding="UTF-8" standalone="no"?>
<svg width="503px" height="378px" viewBox="0 0 503 378" version="1.1" xmlns="http://www.w3.org/2000/svg" xmlns:xlink="http://www.w3.org/1999/xlink">
    <!-- Generator: Sketch 3.8.3 (29802) - http://www.bohemiancoding.com/sketch -->
    <title>ic_contact_phone_black_24px</title>
    <desc>Created with Sketch.</desc>
    <defs></defs>
    <g id="Page-1" stroke="none" stroke-width="1" fill="none" fill-rule="evenodd">
        <g id="ic_contact_phone_black_24px" transform="translate(0.000000, -62.000000)">
            <g id="Group">
                <polygon id="Shape" points="0 0 502.410156 0 502.410156 502.410156 0 502.410156"></polygon>
                <path d="M460.542643,62.8012695 L41.867513,62.8012695 C18.8403809,62.8012695 0,81.6416504 0,104.668783 L0,397.741374 C0,420.768506 18.8403809,439.608887 41.867513,439.608887 L460.542643,439.608887 C483.569775,439.608887 502.200819,420.768506 502.200819,397.741374 L502.410156,104.668783 C502.410156,81.6416504 483.569775,62.8012695 460.542643,62.8012695 L460.542643,62.8012695 Z M167.470052,125.602539 C202.220088,125.602539 230.271322,153.653773 230.271322,188.403809 C230.271322,223.153844 202.220088,251.205078 167.470052,251.205078 C132.720016,251.205078 104.668783,223.153844 104.668783,188.403809 C104.668783,153.653773 132.720016,125.602539 167.470052,125.602539 L167.470052,125.602539 Z M293.072591,376.807617 L41.867513,376.807617 L41.867513,355.873861 C41.867513,314.006348 125.602539,290.979215 167.470052,290.979215 C209.337565,290.979215 293.072591,314.006348 293.072591,355.873861 L293.072591,376.807617 L293.072591,376.807617 Z M373.667554,293.072591 L407.998914,293.072591 L439.608887,334.940104 L397.950711,376.59828 C370.52749,356.083198 350.221746,326.775939 340.801556,293.072591 C337.03348,279.674987 334.940104,265.64937 334.940104,251.205078 C334.940104,236.760786 337.03348,222.735169 340.801556,209.337565 C350.221746,175.42488 370.52749,146.326958 397.950711,125.811877 L439.608887,167.470052 L407.998914,209.337565 L373.667554,209.337565 C369.062127,222.525832 366.340739,236.551449 366.340739,251.205078 C366.340739,265.858708 369.062127,279.884325 373.667554,293.072591 L373.667554,293.072591 Z" id="Shape" fill="#4E2A84"></path>
            </g>
        </g>
    </g>
</svg>