<?xml version="1.0" encoding="UTF-8" standalone="no"?>
<svg width="378px" height="378px" viewBox="0 0 378 378" version="1.1" xmlns="http://www.w3.org/2000/svg" xmlns:xlink="http://www.w3.org/1999/xlink">
    <!-- Generator: Sketch 3.8.3 (29802) - http://www.bohemiancoding.com/sketch -->
    <title>ic_insert_chart_black_24px</title>
    <desc>Created with Sketch.</desc>
    <defs></defs>
    <g id="Page-1" stroke="none" stroke-width="1" fill="none" fill-rule="evenodd">
        <g id="ic_insert_chart_black_24px" transform="translate(-62.000000, -62.000000)">
            <g id="Group">
                <path d="M397.741374,62.8012695 L104.668783,62.8012695 C81.6416504,62.8012695 62.8012695,81.6416504 62.8012695,104.668783 L62.8012695,397.741374 C62.8012695,420.768506 81.6416504,439.608887 104.668783,439.608887 L397.741374,439.608887 C420.768506,439.608887 439.608887,420.768506 439.608887,397.741374 L439.608887,104.668783 C439.608887,81.6416504 420.768506,62.8012695 397.741374,62.8012695 L397.741374,62.8012695 Z M188.403809,355.873861 L146.536296,355.873861 L146.536296,209.337565 L188.403809,209.337565 L188.403809,355.873861 L188.403809,355.873861 Z M272.138835,355.873861 L230.271322,355.873861 L230.271322,146.536296 L272.138835,146.536296 L272.138835,355.873861 L272.138835,355.873861 Z M355.873861,355.873861 L314.006348,355.873861 L314.006348,272.138835 L355.873861,272.138835 L355.873861,355.873861 L355.873861,355.873861 Z" id="Shape" fill="#4E2A84"></path>
                <polygon id="Shape" points="0 0 502.410156 0 502.410156 502.410156 0 502.410156"></polygon>
            </g>
        </g>
    </g>
</svg>