<?xml version="1.0" encoding="UTF-8" standalone="no"?>
<svg width="378px" height="378px" viewBox="0 0 378 378" version="1.1" xmlns="http://www.w3.org/2000/svg" xmlns:xlink="http://www.w3.org/1999/xlink">
    <!-- Generator: Sketch 3.8.3 (29802) - http://www.bohemiancoding.com/sketch -->
    <title>ic_phone_black_24px</title>
    <desc>Created with Sketch.</desc>
    <defs></defs>
    <g id="Page-1" stroke="none" stroke-width="1" fill="none" fill-rule="evenodd">
        <g id="ic_phone_black_24px" transform="translate(-62.000000, -62.000000)">
            <g id="Group">
                <polygon id="Shape" points="0 0 502.410156 0 502.410156 502.410156 0 502.410156"></polygon>
                <path d="M138.581468,225.875233 C168.726077,285.117764 217.292393,333.474741 276.534924,363.828688 L322.589188,317.774424 C328.241302,312.12231 336.614805,310.238271 343.941619,312.750322 C367.387427,320.495812 392.717272,324.682563 418.67513,324.682563 C430.188696,324.682563 439.608887,334.102754 439.608887,345.61632 L439.608887,418.67513 C439.608887,430.188696 430.188696,439.608887 418.67513,439.608887 C222.107157,439.608887 62.8012695,280.303 62.8012695,83.735026 C62.8012695,72.22146 72.22146,62.8012695 83.735026,62.8012695 L157.003174,62.8012695 C168.51674,62.8012695 177.93693,72.22146 177.93693,83.735026 C177.93693,109.902222 182.123682,135.022729 189.869172,158.468537 C192.171885,165.795352 190.497184,173.959517 184.635732,179.820968 L138.581468,225.875233 L138.581468,225.875233 Z" id="Shape" fill="#4E2A84"></path>
            </g>
        </g>
    </g>
</svg>