<?xml version="1.0" encoding="UTF-8" standalone="no"?>
<svg width="420px" height="294px" viewBox="0 0 420 294" version="1.1" xmlns="http://www.w3.org/2000/svg" xmlns:xlink="http://www.w3.org/1999/xlink">
    <!-- Generator: Sketch 3.8.3 (29802) - http://www.bohemiancoding.com/sketch -->
    <title>ic_supervisor_account_black_24px</title>
    <desc>Created with Sketch.</desc>
    <defs></defs>
    <g id="Page-1" stroke="none" stroke-width="1" fill="none" fill-rule="evenodd">
        <g id="ic_supervisor_account_black_24px" transform="translate(-41.000000, -104.000000)">
            <g id="Group">
                <polygon id="Shape" points="0 0 502.410156 0 502.410156 502.410156 0 502.410156"></polygon>
                <path d="M345.406982,251.205078 C374.295566,251.205078 397.532036,227.759271 397.532036,198.870687 C397.532036,169.982103 374.295566,146.536296 345.406982,146.536296 C316.518398,146.536296 293.072591,169.982103 293.072591,198.870687 C293.072591,227.759271 316.518398,251.205078 345.406982,251.205078 L345.406982,251.205078 Z M188.403809,230.271322 C223.153844,230.271322 250.995741,202.220088 250.995741,167.470052 C250.995741,132.720016 223.153844,104.668783 188.403809,104.668783 C153.653773,104.668783 125.602539,132.720016 125.602539,167.470052 C125.602539,202.220088 153.653773,230.271322 188.403809,230.271322 L188.403809,230.271322 Z M345.406982,293.072591 C307.098208,293.072591 230.271322,312.331647 230.271322,350.640422 L230.271322,397.741374 L460.542643,397.741374 L460.542643,350.640422 C460.542643,312.331647 383.715757,293.072591 345.406982,293.072591 L345.406982,293.072591 Z M188.403809,272.138835 C139.628156,272.138835 41.867513,296.63133 41.867513,345.406982 L41.867513,397.741374 L188.403809,397.741374 L188.403809,350.640422 C188.403809,332.846729 195.311948,301.655431 238.016812,278.000286 C219.804443,274.23221 202.220088,272.138835 188.403809,272.138835 L188.403809,272.138835 Z" id="Shape" fill="#4E2A84"></path>
            </g>
        </g>
    </g>
</svg>