<?xml version="1.0" encoding="UTF-8" standalone="no"?>
<svg width="462px" height="252px" viewBox="0 0 462 252" version="1.1" xmlns="http://www.w3.org/2000/svg" xmlns:xlink="http://www.w3.org/1999/xlink">
    <!-- Generator: Sketch 3.8.3 (29802) - http://www.bohemiancoding.com/sketch -->
    <title>ic_timeline_black_24px</title>
    <desc>Created with Sketch.</desc>
    <defs>
        <polygon id="path-1" points="0 0 502.410156 0 502.410156 502.410156 0 502.410156"></polygon>
    </defs>
    <g id="Page-1" stroke="none" stroke-width="1" fill="none" fill-rule="evenodd">
        <g id="ic_timeline_black_24px" transform="translate(-20.000000, -125.000000)">
            <g id="Clipped">
                <mask id="mask-2" fill="white">
                    <use xlink:href="#path-1"></use>
                </mask>
                <g id="a"></g>
                <path d="M481.4764,167.470052 C481.4764,190.497184 462.636019,209.337565 439.608887,209.337565 C435.840811,209.337565 432.282072,208.91889 428.932671,207.872202 L354.408498,282.187038 C355.455186,285.536439 355.873861,289.304515 355.873861,293.072591 C355.873861,316.099723 337.03348,334.940104 314.006348,334.940104 C290.979215,334.940104 272.138835,316.099723 272.138835,293.072591 C272.138835,289.304515 272.55751,285.536439 273.604198,282.187038 L220.223118,228.805959 C216.873717,229.852646 213.105641,230.271322 209.337565,230.271322 C205.569489,230.271322 201.801413,229.852646 198.452012,228.805959 L103.20342,324.263888 C104.250107,327.613289 104.668783,331.172028 104.668783,334.940104 C104.668783,357.967236 85.8284017,376.807617 62.8012695,376.807617 C39.7741374,376.807617 20.9337565,357.967236 20.9337565,334.940104 C20.9337565,311.912972 39.7741374,293.072591 62.8012695,293.072591 C66.5693457,293.072591 70.1280843,293.491266 73.4774854,294.537954 L168.935415,199.289362 C167.888727,195.939961 167.470052,192.171885 167.470052,188.403809 C167.470052,165.376676 186.310433,146.536296 209.337565,146.536296 C232.364697,146.536296 251.205078,165.376676 251.205078,188.403809 C251.205078,192.171885 250.786403,195.939961 249.739715,199.289362 L303.120794,252.670441 C306.470195,251.623753 310.238271,251.205078 314.006348,251.205078 C317.774424,251.205078 321.5425,251.623753 324.891901,252.670441 L399.206737,178.146268 C398.160049,174.796867 397.741374,171.238128 397.741374,167.470052 C397.741374,144.44292 416.581755,125.602539 439.608887,125.602539 C462.636019,125.602539 481.4764,144.44292 481.4764,167.470052 L481.4764,167.470052 Z" id="Shape" fill="#4E2A84" mask="url(#mask-2)"></path>
            </g>
        </g>
    </g>
</svg>