<?xml version="1.0" encoding="UTF-8" standalone="no"?>
<svg width="420px" height="399px" viewBox="0 0 420 399" version="1.1" xmlns="http://www.w3.org/2000/svg" xmlns:xlink="http://www.w3.org/1999/xlink">
    <!-- Generator: Sketch 3.8.3 (29802) - http://www.bohemiancoding.com/sketch -->
    <title>ic_work_black_24px</title>
    <desc>Created with Sketch.</desc>
    <defs></defs>
    <g id="Page-1" stroke="none" stroke-width="1" fill="none" fill-rule="evenodd">
        <g id="ic_work_black_24px" transform="translate(-41.000000, -41.000000)">
            <g id="Group">
                <polygon id="Shape" points="0 0 502.410156 0 502.410156 502.410156 0 502.410156"></polygon>
                <path d="M418.67513,125.602539 L334.940104,125.602539 L334.940104,83.735026 C334.940104,60.4985563 316.309061,41.867513 293.072591,41.867513 L209.337565,41.867513 C186.101095,41.867513 167.470052,60.4985563 167.470052,83.735026 L167.470052,125.602539 L83.735026,125.602539 C60.4985563,125.602539 42.0768506,144.233582 42.0768506,167.470052 L41.867513,397.741374 C41.867513,420.977843 60.4985563,439.608887 83.735026,439.608887 L418.67513,439.608887 C441.9116,439.608887 460.542643,420.977843 460.542643,397.741374 L460.542643,167.470052 C460.542643,144.233582 441.9116,125.602539 418.67513,125.602539 L418.67513,125.602539 Z M293.072591,125.602539 L209.337565,125.602539 L209.337565,83.735026 L293.072591,83.735026 L293.072591,125.602539 L293.072591,125.602539 Z" id="Shape" fill="#4E2A84"></path>
            </g>
        </g>
    </g>
</svg>