<?xml version="1.0" encoding="UTF-8" standalone="no"?>
<svg width="24px" height="21px" viewBox="0 0 24 21" version="1.1" xmlns="http://www.w3.org/2000/svg" xmlns:xlink="http://www.w3.org/1999/xlink">
    <!-- Generator: Sketch 39.1 (31720) - http://www.bohemiancoding.com/sketch -->
    <title>user group wifi</title>
    <desc>Created with Sketch.</desc>
    <defs></defs>
    <g id="Page-1" stroke="none" stroke-width="1" fill="none" fill-rule="evenodd">
        <g id="user-group-wifi" transform="translate(0.000000, -3.000000)">
            <g id="Group">
                <g id="Frame_-_24px">
                    <rect id="Rectangle-path" x="0" y="0.999" width="24" height="24"></rect>
                </g>
                <g id="Filled_Icons" transform="translate(0.000000, 3.000000)" fill="#4E2A84">
                    <g id="Group">
                        <g transform="translate(4.000000, 0.000000)" id="Shape">
                            <path d="M1.883,4.851 L0.353,3.562 C2.261,1.298 5.05,0 8.007,0 C10.954,0 13.738,1.293 15.646,3.547 L14.12,4.837 C12.593,3.035 10.365,2 8.007,2 C5.642,2 3.409,3.039 1.883,4.851 L1.883,4.851 Z"></path>
                            <path d="M8.007,5.999 C6.737,5.999 5.571,6.583 4.807,7.6 L3.207,6.399 C4.335,4.896 6.129,4 8.007,4 C9.914,4 11.664,4.876 12.809,6.402 L11.209,7.601 C10.445,6.583 9.278,5.999 8.007,5.999 Z"></path>
                        </g>
                        <g transform="translate(0.000000, 8.000000)">
                            <path d="M4.001,11 C4.001,10.298 4.128,9.627 4.351,9 L3.335,9 C1.494,9 0.001,10.159 0.001,12 L0.001,13 L4.001,13 L4.001,11 L4.001,11 Z" id="Shape"></path>
                            <path d="M7.593,5.508 C7.593,5.505 7.594,5.502 7.594,5.499 C7.594,4.118 6.474,2.999 5.093,2.999 C3.713,2.999 2.594,4.118 2.594,5.499 C2.594,6.79 3.575,7.839 4.829,7.973 C5.467,6.887 6.433,6.019 7.593,5.508 L7.593,5.508 Z" id="Shape"></path>
                            <path d="M19.093,3 C17.713,3 16.594,4.119 16.594,5.5 C16.594,5.535 16.603,5.568 16.604,5.602 C17.684,6.125 18.582,6.958 19.184,7.991 C20.522,7.942 21.594,6.849 21.594,5.5 C21.594,4.119 20.474,3 19.093,3 L19.093,3 Z" id="Shape"></path>
                            <path d="M20.667,9 L19.651,9 C19.874,9.627 20.001,10.298 20.001,11 L20.001,13 L24.001,13 L24.001,12 C24.001,10.159 22.508,9 20.667,9 L20.667,9 Z" id="Shape"></path>
                            <path d="M6.001,13 L18.001,13 L18.001,11 C18.001,9.084 16.652,7.487 14.854,7.096 C14.043,7.662 13.062,8 12.001,8 C10.94,8 9.958,7.662 9.148,7.096 C7.35,7.487 6.001,9.083 6.001,11 L6.001,13 L6.001,13 Z" id="Shape"></path>
                            <circle id="Oval" cx="12.001" cy="3" r="3"></circle>
                        </g>
                    </g>
                </g>
            </g>
        </g>
    </g>
</svg>