<?xml version="1.0" encoding="UTF-8" standalone="no"?>
<svg width="28px" height="21px" viewBox="0 0 28 21" version="1.1" xmlns="http://www.w3.org/2000/svg" xmlns:xlink="http://www.w3.org/1999/xlink">
    <!-- Generator: Sketch 39.1 (31720) - http://www.bohemiancoding.com/sketch -->
    <title>f014</title>
    <desc>Created with Sketch.</desc>
    <defs></defs>
    <g id="Page-1" stroke="none" stroke-width="1" fill="none" fill-rule="evenodd">
        <g id="f014" fill="#4E2A84">
            <path d="M17.75,13.289062 C15.875,13.289062 13.794922,13.699219 11.509766,14.519531 C9.224609,15.339844 7.964844,16.589844 7.730469,18.269531 L7.730469,20.789062 L27.769531,20.789062 L27.769531,18.269531 C27.535156,16.589844 26.275391,15.339844 23.990234,14.519531 C21.705078,13.699219 19.625,13.289062 17.75,13.289062 L17.75,13.289062 Z M6.5,8.25 L6.5,4.5 L3.980469,4.5 L3.980469,8.25 L0.230469,8.25 L0.230469,10.769531 L3.980469,10.769531 L3.980469,14.519531 L6.5,14.519531 L6.5,10.769531 L10.25,10.769531 L10.25,8.25 L6.5,8.25 Z M17.75,10.769531 C19.15625,10.730469 20.328125,10.242188 21.265625,9.304688 C22.203125,8.367188 22.671875,7.185547 22.671875,5.759766 C22.671875,4.333984 22.203125,3.152344 21.265625,2.214844 C20.328125,1.277344 19.15625,0.808594 17.75,0.808594 C16.34375,0.808594 15.171875,1.277344 14.234375,2.214844 C13.296875,3.152344 12.828125,4.333984 12.828125,5.759766 C12.828125,7.185547 13.296875,8.367188 14.234375,9.304688 C15.171875,10.242188 16.34375,10.730469 17.75,10.769531 L17.75,10.769531 Z" id="Shape"></path>
        </g>
    </g>
</svg>