<?xml version="1.0" encoding="UTF-8" standalone="no"?>
<svg width="26px" height="25px" viewBox="0 0 26 25" version="1.1" xmlns="http://www.w3.org/2000/svg" xmlns:xlink="http://www.w3.org/1999/xlink">
    <!-- Generator: Sketch 39.1 (31720) - http://www.bohemiancoding.com/sketch -->
    <title>f124</title>
    <desc>Created with Sketch.</desc>
    <defs></defs>
    <g id="Page-1" stroke="none" stroke-width="1" fill="none" fill-rule="evenodd">
        <g id="f124" fill="#4E2A84">
            <path d="M2.980469,0.769531 C2.277344,0.769531 1.691406,1.003906 1.222656,1.472656 C0.753906,1.941406 0.519531,2.546875 0.519531,3.289062 L0.519531,15.769531 C0.519531,16.472656 0.753906,17.058594 1.222656,17.527344 C1.691406,17.996094 2.277344,18.25 2.980469,18.289062 L13,18.289062 L13,24.5 L16.75,20.75 L20.5,24.5 L20.5,18.289062 L23.019531,18.289062 C23.722656,18.25 24.308594,17.996094 24.777344,17.527344 C25.246094,17.058594 25.480469,16.472656 25.480469,15.769531 L25.480469,3.289062 C25.480469,2.585938 25.246094,1.990234 24.777344,1.501953 C24.308594,1.013672 23.722656,0.769531 23.019531,0.769531 L2.980469,0.769531 Z M13,3.289062 L16.75,5.75 L20.5,3.289062 L20.5,7.625 L24.25,9.5 L20.5,11.375 L20.5,15.769531 L16.75,13.25 L13,15.769531 L13,11.375 L9.25,9.5 L13,7.625 L13,3.289062 Z M2.980469,3.289062 L9.25,3.289062 L9.25,5.75 L2.980469,5.75 L2.980469,3.289062 Z M2.980469,8.269531 L6.730469,8.269531 L6.730469,10.789062 L2.980469,10.789062 L2.980469,8.269531 Z M2.980469,13.25 L9.25,13.25 L9.25,15.769531 L2.980469,15.769531 L2.980469,13.25 Z" id="Shape"></path>
        </g>
    </g>
</svg>