<?xml version="1.0" encoding="UTF-8" standalone="no"?>
<svg width="26px" height="26px" viewBox="0 0 26 26" version="1.1" xmlns="http://www.w3.org/2000/svg" xmlns:xlink="http://www.w3.org/1999/xlink">
    <!-- Generator: Sketch 39.1 (31720) - http://www.bohemiancoding.com/sketch -->
    <title>f138</title>
    <desc>Created with Sketch.</desc>
    <defs></defs>
    <g id="Page-1" stroke="none" stroke-width="1" fill="none" fill-rule="evenodd">
        <g id="f138" fill="#4E2A84">
            <path d="M25.480469,17.769531 C25.480469,18.472656 25.246094,19.068359 24.777344,19.556641 C24.308594,20.044922 23.722656,20.289062 23.019531,20.289062 L8.019531,20.289062 C7.277344,20.289062 6.671875,20.044922 6.203125,19.556641 C5.734375,19.068359 5.5,18.472656 5.5,17.769531 L5.5,2.769531 C5.5,2.066406 5.734375,1.480469 6.203125,1.011719 C6.671875,0.542969 7.277344,0.308594 8.019531,0.308594 L23.019531,0.308594 C23.722656,0.308594 24.308594,0.542969 24.777344,1.011719 C25.246094,1.480469 25.480469,2.066406 25.480469,2.769531 L25.480469,17.769531 Z M17.980469,22.808594 L17.980469,25.269531 L2.980469,25.269531 C2.277344,25.269531 1.691406,25.035156 1.222656,24.566406 C0.753906,24.097656 0.519531,23.511719 0.519531,22.808594 L0.519531,6.519531 L2.980469,6.519531 L2.980469,22.808594 L17.980469,22.808594 Z M14.230469,15.308594 L23.019531,6.519531 L21.261719,4.761719 L14.230469,11.734375 L10.363281,7.925781 L8.605469,9.683594 L14.230469,15.308594 Z" id="Shape"></path>
        </g>
    </g>
</svg>