<?xml version="1.0" encoding="UTF-8" standalone="no"?>
<svg width="24px" height="26px" viewBox="0 0 24 26" version="1.1" xmlns="http://www.w3.org/2000/svg" xmlns:xlink="http://www.w3.org/1999/xlink">
    <!-- Generator: Sketch 39.1 (31720) - http://www.bohemiancoding.com/sketch -->
    <title>f148</title>
    <desc>Created with Sketch.</desc>
    <defs></defs>
    <g id="Page-1" stroke="none" stroke-width="1" fill="none" fill-rule="evenodd">
        <g id="f148" fill="#4E2A84">
            <path d="M19.5,22.519531 L4.5,22.519531 L4.5,20.761719 C4.65625,19.511719 5.59375,18.554688 7.3125,17.890625 C9.03125,17.226562 10.59375,16.894531 12,16.894531 C13.40625,16.894531 14.96875,17.226562 16.6875,17.890625 C18.40625,18.554688 19.34375,19.511719 19.5,20.761719 L19.5,22.519531 Z M12,7.519531 C13.054688,7.558594 13.933594,7.929688 14.636719,8.632812 C15.339844,9.335938 15.691406,10.224609 15.691406,11.298828 C15.691406,12.373047 15.339844,13.261719 14.636719,13.964844 C13.933594,14.667969 13.054688,15.019531 12,15.019531 C10.945312,15.019531 10.066406,14.667969 9.363281,13.964844 C8.660156,13.261719 8.308594,12.373047 8.308594,11.298828 C8.308594,10.224609 8.660156,9.335938 9.363281,8.632812 C10.066406,7.929688 10.945312,7.558594 12,7.519531 L12,7.519531 Z M12,2.539062 C12.351562,2.539062 12.644531,2.65625 12.878906,2.890625 C13.113281,3.125 13.230469,3.417969 13.230469,3.769531 C13.230469,4.121094 13.113281,4.414062 12.878906,4.648438 C12.644531,4.882812 12.351562,5 12,5 C11.648438,5 11.355469,4.882812 11.121094,4.648438 C10.886719,4.414062 10.769531,4.121094 10.769531,3.769531 C10.769531,3.417969 10.886719,3.125 11.121094,2.890625 C11.355469,2.65625 11.648438,2.539062 12,2.539062 L12,2.539062 Z M20.730469,2.539062 L15.515625,2.539062 C15.242188,1.796875 14.792969,1.201172 14.167969,0.751953 C13.542969,0.302734 12.820312,0.078125 12,0.078125 C11.179688,0.078125 10.457031,0.302734 9.832031,0.751953 C9.207031,1.201172 8.757812,1.796875 8.484375,2.539062 L3.269531,2.539062 C2.566406,2.539062 1.970703,2.783203 1.482422,3.271484 C0.994141,3.759766 0.75,4.355469 0.75,5.058594 L0.75,22.519531 C0.75,23.222656 0.994141,23.818359 1.482422,24.306641 C1.970703,24.794922 2.566406,25.039062 3.269531,25.039062 L20.730469,25.039062 C21.433594,25.039062 22.029297,24.794922 22.517578,24.306641 C23.005859,23.818359 23.25,23.222656 23.25,22.519531 L23.25,5.058594 C23.25,4.355469 23.005859,3.759766 22.517578,3.271484 C22.029297,2.783203 21.433594,2.539062 20.730469,2.539062 L20.730469,2.539062 Z" id="Shape"></path>
        </g>
    </g>
</svg>