<?xml version="1.0" encoding="UTF-8" standalone="no"?>
<svg width="26px" height="26px" viewBox="0 0 26 26" version="1.1" xmlns="http://www.w3.org/2000/svg" xmlns:xlink="http://www.w3.org/1999/xlink">
    <!-- Generator: Sketch 39.1 (31720) - http://www.bohemiancoding.com/sketch -->
    <title>f538.1</title>
    <desc>Created with Sketch.</desc>
    <defs></defs>
    <g id="Page-1" stroke="none" stroke-width="1" fill="none" fill-rule="evenodd">
        <g id="f538.1" fill="#4E2A84">
            <path d="M23.253906,0.308594 L20.5,0.308594 C19.914062,0.308594 19.357422,0.5625 18.830078,1.070312 C18.302734,1.578125 18.019531,2.144531 17.980469,2.769531 L8.019531,2.769531 C7.980469,2.144531 7.697266,1.578125 7.169922,1.070312 C6.642578,0.5625 6.085938,0.308594 5.5,0.308594 L0.519531,0.308594 L0.519531,11.558594 C0.519531,12.183594 0.773438,12.75 1.28125,13.257812 C1.789062,13.765625 2.355469,14.019531 2.980469,14.019531 L5.734375,14.019531 C5.96875,15.308594 6.554688,16.412109 7.492188,17.330078 C8.429688,18.248047 9.855469,18.824219 11.769531,19.058594 L11.769531,21.636719 C10.402344,21.792969 9.425781,22.173828 8.839844,22.779297 C8.253906,23.384766 7.980469,24.097656 8.019531,24.917969 L8.019531,25.269531 L17.980469,25.269531 L17.980469,24.917969 C18.019531,24.097656 17.746094,23.384766 17.160156,22.779297 C16.574219,22.173828 15.597656,21.792969 14.230469,21.636719 L14.230469,19.058594 C16.144531,18.824219 17.570312,18.248047 18.507812,17.330078 C19.445312,16.412109 20.03125,15.308594 20.265625,14.019531 L23.019531,14.019531 C23.644531,14.019531 24.210938,13.765625 24.71875,13.257812 C25.226562,12.75 25.480469,12.183594 25.480469,11.558594 L25.480469,0.308594 L23.253906,0.308594 Z M2.980469,11.558594 L2.980469,2.769531 L5.5,2.769531 L5.5,11.558594 L2.980469,11.558594 Z M23.019531,11.558594 L20.5,11.558594 L20.5,2.769531 L23.019531,2.769531 L23.019531,11.558594 Z" id="Shape"></path>
        </g>
    </g>
</svg>