<?xml version="1.0" encoding="UTF-8" standalone="no"?>
<svg width="420px" height="420px" viewBox="0 0 420 420" version="1.1" xmlns="http://www.w3.org/2000/svg" xmlns:xlink="http://www.w3.org/1999/xlink">
    <!-- Generator: Sketch 3.8.3 (29802) - http://www.bohemiancoding.com/sketch -->
    <title>ic_schedule_black_24px</title>
    <desc>Created with Sketch.</desc>
    <defs></defs>
    <g id="Page-1" stroke="none" stroke-width="1" fill="none" fill-rule="evenodd">
        <g id="ic_schedule_black_24px" transform="translate(-41.000000, -41.000000)">
            <g id="Group">
                <path d="M250.995741,41.867513 C135.441405,41.867513 41.867513,135.650742 41.867513,251.205078 C41.867513,366.759414 135.441405,460.542643 250.995741,460.542643 C366.759414,460.542643 460.542643,366.759414 460.542643,251.205078 C460.542643,135.650742 366.759414,41.867513 250.995741,41.867513 L250.995741,41.867513 Z M251.205078,418.67513 C158.677874,418.67513 83.735026,343.732282 83.735026,251.205078 C83.735026,158.677874 158.677874,83.735026 251.205078,83.735026 C343.732282,83.735026 418.67513,158.677874 418.67513,251.205078 C418.67513,343.732282 343.732282,418.67513 251.205078,418.67513 L251.205078,418.67513 Z" id="Shape" fill="#4E2A84"></path>
                <polygon id="Shape" points="0 0 502.410156 0 502.410156 502.410156 0 502.410156"></polygon>
                <polygon id="Shape" fill="#4E2A84" points="261.671956 146.536296 230.271322 146.536296 230.271322 272.138835 340.173543 338.080168 355.873861 312.331647 261.671956 256.438517"></polygon>
            </g>
        </g>
    </g>
</svg>