<?xml version="1.0" encoding="UTF-8" standalone="no"?>
<svg width="21px" height="18px" viewBox="0 0 21 18" version="1.1" xmlns="http://www.w3.org/2000/svg" xmlns:xlink="http://www.w3.org/1999/xlink">
    <!-- Generator: Sketch 39.1 (31720) - http://www.bohemiancoding.com/sketch -->
    <title>paper pencil</title>
    <desc>Created with Sketch.</desc>
    <defs></defs>
    <g id="Page-1" stroke="none" stroke-width="1" fill="none" fill-rule="evenodd">
        <g id="paper-pencil" transform="translate(-1.000000, -3.000000)">
            <g id="Group">
                <g id="Frame_-_24px">
                    <rect id="Rectangle-path" x="0" y="0" width="24" height="24"></rect>
                </g>
                <g id="Filled_Icons" transform="translate(1.000000, 3.000000)" fill="#4E2A84">
                    <g id="Group">
                        <path d="M19,2 C17.896,2 17,2.896 17,4 L17,13 L21,13 L21,4 C21,2.896 20.104,2 19,2 L19,2 Z" id="Shape"></path>
                        <polygon id="Shape" points="19 18 21 15 17 15"></polygon>
                        <path d="M12,0 L2,0 C0.897,0 0,0.898 0,2 L0,16 C0,17.103 0.897,18 2,18 L12,18 C13.103,18 14,17.103 14,16 L14,2 C14,0.898 13.103,0 12,0 L12,0 Z M8,14 L3,14 L3,12 L8,12 L8,14 L8,14 Z M11,10 L3,10 L3,8 L11,8 L11,10 L11,10 Z M11,6 L3,6 L3,4 L11,4 L11,6 L11,6 Z" id="Shape"></path>
                    </g>
                </g>
            </g>
        </g>
    </g>
</svg>