<?xml version="1.0" encoding="UTF-8" standalone="no"?>
<svg width="20px" height="20px" viewBox="0 0 20 20" version="1.1" xmlns="http://www.w3.org/2000/svg" xmlns:xlink="http://www.w3.org/1999/xlink">
    <!-- Generator: Sketch 39.1 (31720) - http://www.bohemiancoding.com/sketch -->
    <title>shopping cart 2</title>
    <desc>Created with Sketch.</desc>
    <defs></defs>
    <g id="Page-1" stroke="none" stroke-width="1" fill="none" fill-rule="evenodd">
        <g id="shopping-cart-2" transform="translate(-2.000000, -2.000000)">
            <g id="Group">
                <g id="Frame_-_24px">
                    <rect id="Rectangle-path" x="0" y="0" width="24" height="24"></rect>
                </g>
                <g id="Filled_Icons" transform="translate(2.000000, 2.000000)" fill="#4E2A84">
                    <g id="Group">
                        <path d="M16,0 C15.534,0 15.131,0.321 15.025,0.775 L14.05,5 L1,5 C0.691,5 0.401,5.142 0.212,5.384 C0.023,5.627 -0.045,5.944 0.029,6.242 L2.029,14.242 C2.141,14.688 2.541,15 3,15 L13,15 C13.466,15 13.869,14.678 13.975,14.225 L16.795,2 L20,2 L20,0 L16,0 L16,0 Z" id="Shape"></path>
                        <path d="M4,20 C5.1045695,20 6,19.1045695 6,18 C6,16.8954305 5.1045695,16 4,16 C2.8954305,16 2,16.8954305 2,18 C2,19.1045695 2.8954305,20 4,20 Z" id="Oval"></path>
                        <circle id="Oval" cx="12" cy="18" r="2"></circle>
                    </g>
                </g>
            </g>
        </g>
    </g>
</svg>