<?xml version="1.0" encoding="UTF-8" standalone="no"?>
<svg width="18px" height="22px" viewBox="0 0 18 22" version="1.1" xmlns="http://www.w3.org/2000/svg" xmlns:xlink="http://www.w3.org/1999/xlink">
    <!-- Generator: Sketch 39.1 (31720) - http://www.bohemiancoding.com/sketch -->
    <title>stamp.1</title>
    <desc>Created with Sketch.</desc>
    <defs></defs>
    <g id="Page-1" stroke="none" stroke-width="1" fill="none" fill-rule="evenodd">
        <g id="stamp.1" transform="translate(-3.000000, -1.000000)">
            <g id="Group">
                <g id="Frame_-_24px">
                    <rect id="Rectangle-path" x="0" y="0" width="24" height="24"></rect>
                </g>
                <g id="Filled_Icons" transform="translate(3.000000, 1.000000)" fill="#4E2A84">
                    <g id="Group">
                        <path d="M2,20 C2,21.104 2.896,22 4,22 L14,22 C15.104,22 16,21.104 16,20 L16,19 L2,19 L2,20 L2,20 Z" id="Shape"></path>
                        <path d="M16.632,11.823 L12.684,10.509 C12.274,10.371 12,9.989 12,9.559 L12,6.63 C12.641,5.902 13,4.966 13,4 C13,1.794 11.206,0 9,0 C6.794,0 5,1.794 5,4 C5,4.966 5.359,5.902 6,6.63 L6,9.559 C6,9.99 5.726,10.371 5.316,10.509 L1.368,11.823 C0.551,12.096 0,12.86 0,13.721 L0,18 L18,18 L18,13.721 C18,12.86 17.449,12.096 16.632,11.823 L16.632,11.823 Z" id="Shape"></path>
                    </g>
                </g>
            </g>
        </g>
    </g>
</svg>