<?xml version="1.0" encoding="UTF-8" standalone="no"?>
<svg width="20px" height="21px" viewBox="0 0 20 21" version="1.1" xmlns="http://www.w3.org/2000/svg" xmlns:xlink="http://www.w3.org/1999/xlink">
    <!-- Generator: Sketch 39.1 (31720) - http://www.bohemiancoding.com/sketch -->
    <title>user upload</title>
    <desc>Created with Sketch.</desc>
    <defs></defs>
    <g id="Page-1" stroke="none" stroke-width="1" fill="none" fill-rule="evenodd">
        <g id="user-upload" transform="translate(-2.000000, -2.000000)">
            <g id="Group">
                <g id="Frame_-_24px">
                    <rect id="Rectangle-path" x="0" y="0.999" width="24" height="24"></rect>
                </g>
                <g id="Filled_Icons" transform="translate(2.000000, 2.000000)" fill="#4E2A84">
                    <g id="Group">
                        <polygon id="Shape" points="19.708 5.293 15.001 0.585 10.294 5.293 11.708 6.707 14.001 4.414 14.001 11 16.001 11 16.001 4.414 18.294 6.707"></polygon>
                        <rect id="Rectangle-path" x="14.001" y="12" width="2" height="2"></rect>
                        <rect id="Rectangle-path" x="14.001" y="15" width="2" height="2"></rect>
                        <rect id="Rectangle-path" x="14.001" y="18" width="2" height="2"></rect>
                        <g>
                            <circle id="Oval" cx="5.001" cy="3.999" r="3"></circle>
                            <path d="M5.001,6.999 C2.244,6.999 0.001,9.242 0.001,11.999 L0.001,14.999 C0.001,15.551 0.449,15.999 1.001,15.999 L2.001,15.999 L2.001,19.999 C2.001,20.551 2.449,20.999 3.001,20.999 L7.001,20.999 C7.553,20.999 8.001,20.551 8.001,19.999 L8.001,15.999 L9.001,15.999 C9.553,15.999 10.001,15.551 10.001,14.999 L10.001,11.999 C10.001,9.243 7.758,6.999 5.001,6.999 L5.001,6.999 Z" id="Shape"></path>
                        </g>
                    </g>
                </g>
            </g>
        </g>
    </g>
</svg>