<?xml version="1.0" encoding="utf-8"?>
<!-- Generator: Adobe Illustrator 15.0.0, SVG Export Plug-In . SVG Version: 6.00 Build 0)  -->

<svg version="1.1" id="Layer_1" xmlns="http://www.w3.org/2000/svg" xmlns:xlink="http://www.w3.org/1999/xlink" x="0px" y="0px"
	 width="25px" height="25px" viewBox="0 0 25 25" enable-background="new 0 0 25 25" xml:space="preserve">
<g>
	<path opacity="0.35" fill="#231F20" d="M22.3,25c-0.5,0-0.9-0.2-1.2-0.5l-5.4-5.4c-0.3-0.3-0.5-0.8-0.5-1.2L15,17.8
		c-1.6,1-3.4,1.6-5.3,1.6c-2.6,0-5-1-6.8-2.8c-3.8-3.8-3.8-9.9,0-13.7C4.7,1,7.1,0,9.7,0c2.6,0,5,1,6.8,2.8
		c3.2,3.2,3.7,8.4,1.2,12.2l0.2,0.2c0.5,0,0.9,0.2,1.2,0.5l5.4,5.4c0.7,0.7,0.7,1.8,0,2.5l-1,1C23.2,24.8,22.7,25,22.3,25z
		 M15.1,15.9l1.5,1.5l-0.1,0.4c0,0.1,0,0.2,0.1,0.3l5.4,5.4c0.1,0.1,0.2,0.1,0.2,0.1s0.2,0,0.2-0.1l1-1c0.1-0.1,0.1-0.4,0-0.5
		l-5.4-5.4c-0.1-0.1-0.2-0.1-0.3-0.1l-0.4,0.1l-1.5-1.5l0.4-0.5c2.5-3.3,2.2-7.9-0.7-10.8C14,2.3,11.9,1.4,9.7,1.4
		c-2.2,0-4.3,0.9-5.8,2.4c-3.2,3.2-3.2,8.5,0,11.7c1.6,1.6,3.6,2.4,5.8,2.4c1.8,0,3.5-0.6,5-1.7L15.1,15.9z M9.7,17.4
		c-2.1,0-4.1-0.8-5.6-2.3c-1.5-1.5-2.3-3.5-2.3-5.6S2.6,5.5,4.1,4c1.5-1.5,3.5-2.3,5.6-2.3c2.1,0,4.1,0.8,5.6,2.3
		c1.5,1.5,2.3,3.5,2.3,5.6c0,2.1-0.8,4.1-2.3,5.6S11.8,17.4,9.7,17.4z M9.7,3.1C8,3.1,6.3,3.8,5.1,5C3.9,6.2,3.2,7.9,3.2,9.6
		s0.7,3.3,1.9,4.6S8,16,9.7,16c1.7,0,3.3-0.7,4.6-1.9c1.2-1.2,1.9-2.8,1.9-4.6c0-1.7-0.7-3.3-1.9-4.6C13,3.8,11.4,3.1,9.7,3.1z"/>
	<path fill="#FFFFFF" d="M24,21.5l-5.4-5.4c-0.3-0.3-0.6-0.4-1-0.3l-0.8-0.8c2.7-3.5,2.4-8.5-0.8-11.7c-3.5-3.5-9.2-3.5-12.7,0
		c-3.5,3.5-3.5,9.2,0,12.7c3.2,3.2,8.2,3.5,11.7,0.8l0.8,0.8c-0.1,0.3,0,0.7,0.3,1l5.4,5.4c0.4,0.4,1.1,0.4,1.5,0l1-1
		C24.4,22.6,24.4,21.9,24,21.5z M4.6,14.6c-2.8-2.8-2.8-7.3,0-10.1c2.8-2.8,7.3-2.8,10.1,0c2.8,2.8,2.8,7.3,0,10.1
		C11.9,17.4,7.4,17.4,4.6,14.6z"/>
</g>
</svg>
