<?xml version="1.0" encoding="utf-8"?>
<!-- Generator: Adobe Illustrator 15.0.0, SVG Export Plug-In . SVG Version: 6.00 Build 0)  -->

<svg version="1.1" id="Layer_1" xmlns="http://www.w3.org/2000/svg" xmlns:xlink="http://www.w3.org/1999/xlink" x="0px" y="0px"
	 width="25px" height="25px" viewBox="0 0 25 25" enable-background="new 0 0 25 25" xml:space="preserve">
<g>
	<g opacity="0.35">
		<path d="M7.5,20.7V9.4l10-4.935V15.1L7.5,20.7z M8.9,10.2v8.1v-7.7l6.8,3.9l0.5-0.3V6.1L8.9,10.2z M10.253,12.5v3.557l3.016-1.828
			L10.253,12.5z"/>
	</g>
	<g opacity="0.35">
		<path d="M12.5,25C5.6,25,0,19.4,0,12.5C0,5.6,5.6,0,12.5,0C19.4,0,25,5.6,25,12.5C25,19.4,19.4,25,12.5,25z M12.5,1.4
			c-6.1,0-11.1,5-11.1,11.1c0,6.1,5,11.1,11.1,11.1c6.1,0,11.1-5,11.1-11.1C23.6,6.4,18.6,1.4,12.5,1.4z M12.4,23.4
			c-6,0-10.9-4.9-10.9-10.9S6.4,1.6,12.4,1.6c6,0,10.9,4.9,10.9,10.9C23.3,18.6,18.4,23.4,12.4,23.4z M12.4,3
			c-5.3,0-9.5,4.3-9.5,9.5c0,5.3,4.3,9.5,9.5,9.5c5.3,0,9.5-4.3,9.5-9.5C22,7.3,17.7,3,12.4,3z"/>
	</g>
	<path fill="#FFFFFF" d="M8,9.8v9.7l9-4.8V5.28L8,9.8z M10,11.8l4.1,2.4L10,16.6V11.8z"/>
	<path fill="#FFFFFF" d="M12.6,0.6c-6.6,0-12,5.3-12,11.9c0,6.6,5.4,11.9,11.9,11.9c6.6,0,11.899-5.4,11.899-11.9
		C24.5,5.899,19.2,0.6,12.6,0.6z M12.5,2.399c5.6,0,10.1,4.5,10.1,10.101c0,5.6-4.5,10.1-10.1,10.1c-5.6,0-10.1-4.5-10.1-10.1
		C2.4,7,6.9,2.399,12.5,2.399z"/>
</g>
</svg>
