<?xml version="1.0" encoding="utf-8"?>
<!-- Generator: Adobe Illustrator 15.0.0, SVG Export Plug-In . SVG Version: 6.00 Build 0)  -->

<svg version="1.1" id="Layer_1" xmlns="http://www.w3.org/2000/svg" xmlns:xlink="http://www.w3.org/1999/xlink" x="0px" y="0px"
	 width="25px" height="25px" viewBox="0 0 25 25" enable-background="new 0 0 25 25" xml:space="preserve">
<g>
	<path opacity="0.35" fill="#231F20" d="M22.3,15.3l-9.8-9.8l-9.8,9.8L0,12.7L12.5,0.2L25,12.7L22.3,15.3z M2,12.7l0.7,0.7l9.8-9.8
		l9.8,9.8l0.7-0.7L12.5,2.1L2,12.7z"/>
	<path opacity="0.35" fill="#231F20" d="M21.3,24.8h-6.9v-5h-3.9v5H3.7V14.4l8.8-8.8l8.8,8.8V24.8z M15.8,23.5H20v-9.1l-7.5-7.3
		l-7.5,7.3v9.1h4.1v-5h6.6V23.5z"/>
	<polygon fill="#FFFFFF" points="12.5,4.5 22.3,14.3 24,12.7 12.5,1.1 1,12.7 2.7,14.3 	"/>
	<polygon fill="#FFFFFF" points="12.5,6.1 4.4,14.1 4.4,24.1 9.9,24.1 9.9,19.2 15.1,19.2 15.1,24.1 20.6,24.1 20.6,14.1 	"/>
</g>
</svg>
