<?xml version="1.0" encoding="utf-8"?>
<!-- Generator: Adobe Illustrator 15.0.0, SVG Export Plug-In . SVG Version: 6.00 Build 0)  -->

<svg version="1.1" id="Layer_1" xmlns="http://www.w3.org/2000/svg" xmlns:xlink="http://www.w3.org/1999/xlink" x="0px" y="0px"
	 width="25px" height="25px" viewBox="0 0 25 25" enable-background="new 0 0 25 25" xml:space="preserve">
<g>
	<path opacity="0.35" fill="#231F20" d="M9.1,23.7L1.6,6.2L0,3.1l0.7-0.3c0.2-0.1,3.9-1.6,7.6-1.6c3.2,0,5.4,1.2,6.4,3.4
		c0.2,0.5,1.5,1.1,3.6,1.1c1.2,0,2.9-0.2,4.8-1.3c0.7-0.4,1.4-0.3,1.7,0.3c0.6,1-0.4,2.8-0.7,3.4c-0.7,1.2-3.2,4.9-8.3,4.9h0
		c-0.5,0-1,0-1.6-0.1c-0.3,0-0.7-0.1-1-0.1c-1.7,0-3.6,0.6-4.8,1.1l3.7,8.5L9.1,23.7z M2,3.9l0.9,1.8l7,16.2l0.4-0.2l-3.7-8.5
		L7.2,13c1.2-0.5,3.7-1.4,6-1.4c0.4,0,0.8,0,1.2,0.1c0.5,0.1,0.9,0.1,1.4,0.1h0c3.5,0,5.6-2.1,6.6-3.4c0.8-1,1.1-1.9,1.2-2.4
		c-2,1.1-3.9,1.3-5.2,1.3c-2.3,0-4.3-0.8-4.8-1.9C12.7,3.5,11,2.7,8.3,2.7C5.8,2.7,3.2,3.5,2,3.9z"/>
	<path fill="#FFFFFF" d="M23.5,5.1c-4,2.3-8.6,1.3-9.3-0.2C11.5-0.8,1,3.5,1,3.5l1.3,2.4l7.3,16.9l1.6-0.7l-3.7-8.5
		c1.5-0.6,4.4-1.7,6.8-1.3C22.8,13.5,26,3.7,23.5,5.1z"/>
</g>
</svg>
